<?xml version="1.0" encoding="UTF-8"?>
<!DOCTYPE svg PUBLIC "-//W3C//DTD SVG 1.1//EN" "http://www.w3.org/Graphics/SVG/1.1/DTD/svg11.dtd">
<!-- Creator: CorelDRAW X7 -->
<svg xmlns="http://www.w3.org/2000/svg" xml:space="preserve" width="154.149mm" height="36.3715mm" version="1.1" style="shape-rendering:geometricPrecision; text-rendering:geometricPrecision; image-rendering:optimizeQuality; fill-rule:evenodd; clip-rule:evenodd"
viewBox="0 0 15132 3570"
 xmlns:xlink="http://www.w3.org/1999/xlink">
 <defs>
  <style type="text/css">
   <![CDATA[
    .fil4 {fill:none}
    .fil9 {fill:#FEFEFE}
    .fil8 {fill:#8BBE37}
    .fil1 {fill:#377630;fill-rule:nonzero}
    .fil0 {fill:#0A5799;fill-rule:nonzero}
    .fil6 {fill:url(#id11)}
    .fil3 {fill:url(#id12)}
    .fil2 {fill:url(#id13)}
    .fil7 {fill:url(#id14)}
    .fil5 {fill:url(#id15)}
   ]]>
  </style>
     <clipPath id="id0">
      <path d="M819 3247c-5,-2 -9,-5 -14,-7 -389,-225 -649,-638 -649,-1109 0,-53 3,-105 9,-157 19,-229 117,-482 242,-647 45,-59 96,-125 146,-172 310,-290 706,-437 1171,-354 11,2 29,4 40,7 66,18 34,100 108,258 19,42 30,70 51,111 54,100 118,197 196,278 278,290 659,458 1129,465l-57 -251c-48,-247 -87,-503 -212,-715 -156,-266 -412,-410 -827,-413l-202 16c35,27 130,66 176,93 159,96 333,218 406,407l-204 -170c-1019,-699 -2328,46 -2328,1198 0,831 667,1485 1469,1485 304,0 620,-95 850,-263 105,-77 112,-84 198,-167l89 -95c75,-86 166,-231 212,-335 41,-93 69,-167 94,-272 13,-57 38,-199 38,-283l-139 66c-48,671 -623,1200 -1326,1200 -243,0 -471,-63 -666,-174z"/>
     </clipPath>
       <clipPath id="id1">
        <path d="M819 3247c-5,-2 -9,-5 -14,-7 -389,-225 -649,-638 -649,-1109 0,-53 3,-105 9,-157 19,-229 117,-482 242,-647 45,-59 96,-125 146,-172 310,-290 706,-437 1171,-354 11,2 29,4 40,7 66,18 34,100 108,258 19,42 30,70 51,111 54,100 118,197 196,278 278,290 659,458 1129,465l-57 -251c-48,-247 -87,-503 -212,-715 -156,-266 -412,-410 -827,-413l-202 16c35,27 130,66 176,93 159,96 333,218 406,407l-204 -170c-1019,-699 -2328,46 -2328,1198 0,831 667,1485 1469,1485 304,0 620,-95 850,-263 105,-77 112,-84 198,-167l89 -95c75,-86 166,-231 212,-335 41,-93 69,-167 94,-272 13,-57 38,-199 38,-283l-139 66c-48,671 -623,1200 -1326,1200 -243,0 -471,-63 -666,-174z"/>
       </clipPath>
       <clipPath id="id2">
        <path d="M819 3247c-5,-2 -9,-5 -14,-7 -389,-225 -649,-638 -649,-1109 0,-53 3,-105 9,-157 19,-229 117,-482 242,-647 45,-59 96,-125 146,-172 310,-290 706,-437 1171,-354 11,2 29,4 40,7 66,18 34,100 108,258 19,42 30,70 51,111 54,100 118,197 196,278 278,290 659,458 1129,465l-57 -251c-48,-247 -87,-503 -212,-715 -156,-266 -412,-410 -827,-413l-202 16c35,27 130,66 176,93 159,96 333,218 406,407l-204 -170c-1019,-699 -2328,46 -2328,1198 0,831 667,1485 1469,1485 304,0 620,-95 850,-263 105,-77 112,-84 198,-167l89 -95c75,-86 166,-231 212,-335 41,-93 69,-167 94,-272 13,-57 38,-199 38,-283l-139 66c-48,671 -623,1200 -1326,1200 -243,0 -471,-63 -666,-174z"/>
       </clipPath>
     <mask id="id3">
  <linearGradient id="id4" gradientUnits="userSpaceOnUse" x1="2725.58" y1="996.064" x2="2842.92" y2="1134.77">
   <stop offset="0" style="stop-opacity:1; stop-color:white"/>
   <stop offset="1" style="stop-opacity:0; stop-color:white"/>
  </linearGradient>
      <rect style="fill:url(#id4)" x="2668" y="933" width="232" height="265"/>
     </mask>
     <mask id="id5">
  <linearGradient id="id6" gradientUnits="userSpaceOnUse" x1="2148.61" y1="178.962" x2="2241.79" y2="127.897">
   <stop offset="0" style="stop-opacity:1; stop-color:white"/>
   <stop offset="1" style="stop-opacity:0; stop-color:white"/>
  </linearGradient>
      <rect style="fill:url(#id6)" x="2104" y="87" width="181" height="134"/>
     </mask>
     <mask id="id7">
  <linearGradient id="id8" gradientUnits="userSpaceOnUse" x1="2717.26" y1="974.694" x2="2779.44" y2="1048.18">
   <stop offset="0" style="stop-opacity:1; stop-color:white"/>
   <stop offset="1" style="stop-opacity:0; stop-color:white"/>
  </linearGradient>
      <rect style="fill:url(#id8)" x="2682" y="937" width="132" height="149"/>
     </mask>
     <mask id="id9">
  <linearGradient id="id10" gradientUnits="userSpaceOnUse" x1="2132.99" y1="179.452" x2="2182.35" y2="152.399">
   <stop offset="0" style="stop-opacity:1; stop-color:white"/>
   <stop offset="1" style="stop-opacity:0; stop-color:white"/>
  </linearGradient>
      <rect style="fill:url(#id10)" x="2105" y="126" width="105.378" height="80.0621"/>
     </mask>
  <linearGradient id="id11" gradientUnits="userSpaceOnUse" x1="812.322" y1="2250.25" x2="2743.94" y2="2250.25">
   <stop offset="0" style="stop-opacity:1; stop-color:#0A5799"/>
   <stop offset="1" style="stop-opacity:1; stop-color:#8CBF35"/>
  </linearGradient>
  <linearGradient id="id12" gradientUnits="userSpaceOnUse" x1="-0" y1="2055.43" x2="3248.48" y2="2055.43">
   <stop offset="0" style="stop-opacity:1; stop-color:#1B6B1B"/>
   <stop offset="1" style="stop-opacity:1; stop-color:#8BBE37"/>
  </linearGradient>
  <linearGradient id="id13" gradientUnits="userSpaceOnUse" x1="660.424" y1="2688.37" x2="2331.34" y2="2688.37">
   <stop offset="0" style="stop-opacity:1; stop-color:#0A5799"/>
   <stop offset="1" style="stop-opacity:1; stop-color:#67B43C"/>
  </linearGradient>
  <linearGradient id="id14" gradientUnits="userSpaceOnUse" xlink:href="#id11" x1="1235.58" y1="1377.27" x2="1663.37" y2="1377.27">
  </linearGradient>
  <linearGradient id="id15" gradientUnits="userSpaceOnUse" xlink:href="#id12" x1="1454.57" y1="282.161" x2="2478.91" y2="282.161">
  </linearGradient>
 </defs>
 <g id="Layer_x0020_1">
  <metadata id="CorelCorpID_0Corel-Layer"/>
  <g id="_2164584182752">
   <path class="fil0" d="M11498 3348c-140,0 -259,-27 -357,-82 -99,-54 -148,-121 -148,-198 0,-46 24,-93 72,-142 48,-49 112,-92 192,-127 -69,-25 -124,-60 -166,-104 -41,-45 -62,-92 -62,-142 0,-54 25,-107 75,-159 51,-51 118,-92 201,-121 -69,-32 -124,-79 -166,-143 -41,-64 -62,-133 -62,-208 0,-120 51,-217 154,-289 103,-73 240,-109 411,-109 215,0 460,61 518,291 8,32 12,68 12,107 0,120 -48,216 -145,289 -96,72 -224,108 -385,108 -83,0 -147,-4 -192,-11 -34,15 -60,32 -80,51 -19,19 -28,37 -28,54 0,26 29,49 87,66 59,18 130,27 213,27 207,0 363,30 468,89 106,59 158,147 158,262 0,156 -67,277 -202,362 -135,86 -324,129 -568,129zm168 -164c93,0 173,-18 239,-55 65,-36 98,-80 98,-132 0,-48 -20,-83 -61,-105 -41,-22 -117,-37 -227,-47 -33,-7 -81,-13 -145,-17 -64,-4 -112,-10 -144,-18 -34,28 -60,59 -80,91 -19,33 -29,65 -29,96 0,52 35,96 103,132 68,37 150,55 246,55zm-24 -1052c53,0 95,-19 124,-58 30,-39 45,-94 45,-164 0,-70 -15,-125 -45,-164 -29,-39 -71,-58 -124,-58 -61,0 -108,19 -142,58 -33,39 -50,94 -50,164 0,70 17,125 50,164 34,39 81,58 142,58z"/>
   <path class="fil1" d="M3607 2904l0 -1795 968 0 0 401 -520 0 0 308 520 0 0 378 -520 0 0 708 -448 0zm1751 24c-196,0 -362,-70 -501,-208 -139,-139 -208,-306 -208,-501 0,-195 69,-362 208,-501 139,-138 305,-208 501,-208 74,0 142,13 204,37 62,24 112,60 150,105l0 -118 378 0 0 1370 -378 0 0 -142c-36,52 -86,93 -149,122 -63,29 -131,44 -205,44zm12 -402c88,0 163,-31 225,-93 62,-62 93,-137 93,-226 0,-88 -31,-163 -93,-225 -62,-62 -137,-94 -225,-94 -89,0 -164,32 -226,94 -62,62 -93,137 -93,225 0,89 31,164 93,226 62,62 137,93 226,93zm983 378l0 -1370 378 0 0 165c14,-52 49,-94 106,-127 57,-33 124,-50 201,-50 31,0 47,0 47,0l0 366 -94 0c-65,0 -120,26 -167,76 -46,50 -69,112 -69,184l0 756 -402 0zm884 0l0 -1370 378 0 0 142c30,-51 79,-91 147,-121 67,-30 144,-45 231,-45 88,0 167,21 236,62 70,41 117,95 142,163 31,-68 90,-122 176,-163 86,-41 185,-62 296,-62 125,0 231,49 318,146 88,97 131,214 131,351l0 897 -401 0 0 -779c0,-68 -21,-126 -63,-174 -42,-48 -92,-72 -150,-72 -58,0 -108,24 -150,72 -42,48 -63,106 -63,174l0 779 -401 0 0 -779c0,-65 -21,-120 -63,-167 -41,-46 -91,-70 -150,-70 -58,0 -108,24 -150,70 -41,47 -62,102 -62,167l0 779 -402 0zm2913 24c-195,0 -362,-70 -500,-208 -139,-139 -208,-306 -208,-501 0,-195 69,-362 208,-501 138,-138 305,-208 500,-208 74,0 143,13 205,37 62,24 112,60 150,105l0 -118 378 0 0 1370 -378 0 0 -142c-36,52 -86,93 -149,122 -63,29 -132,44 -206,44zm12 -402c88,0 164,-31 226,-93 62,-62 93,-137 93,-226 0,-88 -31,-163 -93,-225 -62,-62 -138,-94 -226,-94 -88,0 -163,32 -225,94 -63,62 -94,137 -94,225 0,89 31,164 94,226 62,62 137,93 225,93z"/>
   <path class="fil0" d="M13033 2928c-192,0 -356,-67 -492,-201 -136,-134 -204,-295 -204,-484 0,-203 68,-377 204,-520 136,-143 300,-215 492,-215 193,0 357,65 493,195 136,130 204,286 204,469l0 189 -1015 0c17,66 55,120 115,162 60,41 128,62 203,62 59,0 109,-7 152,-22 42,-15 70,-35 85,-60l413 0c-33,126 -110,228 -231,307 -122,78 -261,118 -419,118zm-307 -851l626 0c-11,-61 -46,-112 -106,-152 -60,-40 -131,-60 -213,-60 -78,0 -146,20 -204,60 -57,40 -92,91 -103,152zm1177 827l0 -1370 378 0 0 165c27,-58 77,-104 149,-138 73,-34 157,-51 253,-51 124,0 230,49 318,146 87,97 131,214 131,351l0 897 -402 0 0 -779c0,-65 -21,-120 -62,-167 -42,-46 -92,-70 -150,-70 -59,0 -109,24 -150,70 -42,47 -63,102 -63,167l0 779 -402 0z"/>
   <g>
    <path class="fil2" d="M1728 1899c59,11 231,58 304,75 156,38 115,46 225,9 25,-9 51,-18 74,-24 -13,30 -91,101 -121,124 -11,8 -19,14 -30,23 -19,15 -38,27 -59,41 -346,226 -805,324 -841,346 -3,-2 -61,-25 -70,-28 -25,-8 -50,-16 -74,-26 -45,-18 -96,-39 -126,-71 54,-33 243,-98 324,-122l23 -10 -356 -91c4,-8 -1,-2 7,-10 2,-3 5,-6 8,-8 7,-6 9,-9 20,-10 35,4 305,74 362,89 49,12 41,9 89,-3 31,-8 62,-17 92,-24 58,-14 123,-35 181,-47 -33,-21 -380,-90 -459,-118 14,-12 53,-21 72,-19 47,7 298,73 365,90 115,28 75,31 183,1 54,-15 125,-42 176,-52 -13,-10 -36,-14 -54,-18l-383 -95c7,-11 16,-10 32,-16 15,-5 21,-7 36,-6zm-514 721c10,10 21,12 31,23 -5,9 -231,206 -249,215 3,9 1,6 6,12 32,15 64,45 98,65 121,74 81,86 172,11 26,-21 44,-33 68,-52l132 -107c10,10 19,14 29,25 -13,20 -241,186 -261,210 12,22 56,39 73,55l166 108c52,-34 197,-158 227,-170 11,10 14,6 19,28 -1,1 -2,1 -2,2 0,2 -1,2 -2,3l-152 116c-19,14 -19,21 -53,42 8,13 21,15 32,28 319,186 226,228 147,243 -61,12 -312,-85 -339,-49 -124,-33 -702,-482 -696,-678 4,-105 72,-209 149,-267 30,-23 90,-64 128,-79 12,11 21,23 35,36 51,49 54,47 103,85 8,7 12,11 21,18 -26,0 -95,23 -129,31 -57,12 -230,33 -194,113 18,38 56,61 68,72 9,8 3,2 6,8 10,6 17,11 27,18l87 54c2,-1 245,-201 253,-219z"/>
    <path class="fil3" d="M819 3247c-5,-2 -9,-5 -14,-7 -389,-225 -649,-638 -649,-1109 0,-53 3,-105 9,-157 19,-229 117,-482 242,-647 45,-59 96,-125 146,-172 310,-290 706,-437 1171,-354 11,2 29,4 40,7 66,18 34,100 108,258 19,42 30,70 51,111 54,100 118,197 196,278 278,290 659,458 1129,465l-57 -251c-48,-247 -87,-503 -212,-715 -156,-266 -412,-410 -827,-413l-202 16c35,27 130,66 176,93 159,96 333,218 406,407l-204 -170c-1019,-699 -2328,46 -2328,1198 0,831 667,1485 1469,1485 304,0 620,-95 850,-263 105,-77 112,-84 198,-167l89 -95c75,-86 166,-231 212,-335 41,-93 69,-167 94,-272 13,-57 38,-199 38,-283l-139 66c-48,671 -623,1200 -1326,1200 -243,0 -471,-63 -666,-174z"/>
    <g style="clip-path:url(#id0)">
     <g>
      <g>
      </g>
      <g style="clip-path:url(#id1)">
       <image x="-185" y="519" width="3440" height="3212" xlink:href="Farmagen Logo final 12-11-2020_Images\Farmagen Logo final 12-11-2020_ImgID1.png"/>
      </g>
      <g style="clip-path:url(#id2)">
      </g>
     </g>
    </g>
    <path class="fil4" d="M819 3247c-5,-2 -9,-5 -14,-7 -389,-225 -649,-638 -649,-1109 0,-53 3,-105 9,-157 19,-229 117,-482 242,-647 45,-59 96,-125 146,-172 310,-290 706,-437 1171,-354 11,2 29,4 40,7 66,18 34,100 108,258 19,42 30,70 51,111 54,100 118,197 196,278 278,290 659,458 1129,465l-57 -251c-48,-247 -87,-503 -212,-715 -156,-266 -412,-410 -827,-413l-202 16c35,27 130,66 176,93 159,96 333,218 406,407l-204 -170c-1019,-699 -2328,46 -2328,1198 0,831 667,1485 1469,1485 304,0 620,-95 850,-263 105,-77 112,-84 198,-167l89 -95c75,-86 166,-231 212,-335 41,-93 69,-167 94,-272 13,-57 38,-199 38,-283l-139 66c-48,671 -623,1200 -1326,1200 -243,0 -471,-63 -666,-174z"/>
    <path class="fil5" d="M1457 515c36,-40 39,-97 181,-218 61,-52 166,-122 272,-128 -90,58 -116,44 -228,153 -44,44 -127,152 -140,240 447,29 579,-207 821,-419 56,-50 90,-51 116,-68 -110,-30 -203,-60 -332,-71 -339,-29 -729,105 -690,511z"/>
    <path class="fil6" d="M1604 1708c51,-14 390,-109 411,-124 37,-9 67,-22 101,-34 164,-55 305,-113 461,-185l167 -86c-3,19 -45,78 -56,92 -24,30 -48,56 -73,79 -52,50 -107,91 -171,133 -263,173 -625,296 -928,374 -146,34 -745,169 -564,367 13,15 39,40 58,44 30,32 81,53 126,71 24,10 49,18 74,26 9,3 67,26 70,28 135,48 320,180 419,274 46,44 118,123 154,193 49,95 23,201 -32,261 -7,-5 -1,3 -8,-9 -1,-2 -4,-9 -4,-12 -13,-35 -63,-147 -84,-157 -5,-22 -8,-18 -19,-28 -7,-22 -32,-45 -46,-62 -26,-34 -134,-132 -159,-141 -10,-11 -19,-15 -29,-25 -37,-24 -73,-49 -113,-75 -22,-14 -94,-63 -114,-69 -10,-11 -21,-13 -31,-23 -33,-18 -92,-62 -118,-77 -9,-7 -13,-11 -21,-18 -49,-38 -52,-36 -103,-85 -14,-13 -23,-25 -35,-36 -14,-31 -204,-216 -86,-374 115,-155 553,-266 753,-322z"/>
    <path class="fil7" d="M1639 1281c27,24 29,113 18,154 -45,166 -254,197 -349,102 -18,-18 -29,-26 -44,-52 -64,-114 -17,-255 103,-305 33,-13 121,-26 153,-3 48,13 106,63 119,104z"/>
    <path class="fil8" d="M2703 954c38,-28 105,0 150,61 45,62 50,135 12,162 -38,28 -105,0 -150,-62 -44,-61 -50,-134 -12,-161z"/>
    <path class="fil8" d="M2116 183c-10,-27 17,-62 61,-78 43,-17 87,-8 97,19 10,26 -17,62 -60,78 -44,16 -87,8 -98,-19z"/>
    <path class="fil9" style="mask:url(#id3)" d="M2703 954c38,-28 105,0 150,61 45,62 50,135 12,162 -38,28 -105,0 -150,-62 -44,-61 -50,-134 -12,-161z"/>
    <path class="fil9" style="mask:url(#id5)" d="M2116 183c-10,-27 17,-62 61,-78 43,-17 87,-8 97,19 10,26 -17,62 -60,78 -44,16 -87,8 -98,-19z"/>
    <path class="fil9" style="mask:url(#id7)" d="M2705 952c21,-14 56,0 80,33 24,33 26,71 6,86 -20,14 -55,0 -79,-33 -24,-33 -27,-71 -7,-86z"/>
    <path class="fil9" style="mask:url(#id9)" d="M2116 182c-5,-14 9,-33 32,-42 23,-9 46,-4 51,10 6,14 -9,33 -32,42 -23,8 -46,4 -51,-10z"/>
   </g>
  </g>
 </g>
</svg>
